<svg xmlns="http://www.w3.org/2000/svg" version="1.1" xmlns:xlink="http://www.w3.org/1999/xlink" xmlns:svgjs="http://svgjs.dev/svgjs" width="100%" height="100%" viewBox="0 0 1000 600"><rect width="1000" height="600" x="0" y="0" fill="#c5c6c7"/><g><rect width="333.3333333333333" height="333.3333333333333" rx="13.333333333333334" ry="13.333333333333334" y="195.3630536117631" fill="#45a29e" transform="matrix(0.7219557419093249,0,0,0.7219557419093249,0,38.63057967667095)" x="173.14076232910156"/><path d="M265.3783277271709 437.02972741562417L265.3783277271709 437.02972741562417Q249.26744428216847 437.02972741562417 237.759670392881 430.8615606109661Q226.28258390063164 424.66270640926996 220.08372969893546 413.06287032886814Q213.91556289427737 401.4630342484664 213.91556289427737 385.1066516271591L213.91556289427737 385.1066516271591L213.91556289427737 338.95280648185684Q213.91556289427737 314.64838802768173 228.70688826664153 300.8390593605368Q243.49821363900568 287.0297306933918 269.36768934212387 287.0297306933918L269.36768934212387 287.0297306933918Q286.8288182568028 287.0297306933918 299.5334006305761 292.8603361306308Q312.2379830043495 298.7216289649079 318.52889939716 309.33946834009043Q324.81981578997045 319.92662031823494 322.61032320322727 334.5338213083705L322.61032320322727 334.5338213083705Q322.39551142396056 336.74331389511366 320.1860188372174 336.74331389511366L320.1860188372174 336.74331389511366L305.8243170233866 336.74331389511366Q303.4000126573767 336.74331389511366 303.8296362159101 334.5338213083705L303.8296362159101 334.5338213083705Q304.5047589507483 324.3456054917213 300.73020911506205 317.502315952225Q296.98634667641386 310.65902641272874 289.25312262281267 307.12997575334725Q281.5198985692115 303.60092509396577 269.7973129006573 303.60092509396577L269.7973129006573 303.60092509396577Q251.47693686891165 303.60092509396577 242.0865933752531 312.4388954409385Q232.69624988159453 321.27686578791133 232.69624988159453 338.70730730555204L232.69624988159453 338.70730730555204L232.69624988159453 385.3521508034639Q232.69624988159453 403.0280914974095 241.53422022856728 411.74331225622984Q250.37219057554006 420.4585330150502 268.2629430487523 420.4585330150502L268.2629430487523 420.4585330150502Q286.583319080498 420.4585330150502 296.21916175046135 411.40575088881076Q305.8243170233866 402.35296876257127 305.8243170233866 385.3521508034639L305.8243170233866 385.3521508034639L305.8243170233866 376.94380401502457L271.3623701496004 376.94380401502457Q269.1528775628572 376.94380401502457 269.1528775628572 374.73431142828133L269.1528775628572 374.73431142828133L269.1528775628572 362.7969139804605Q269.1528775628572 360.5874213937173 271.3623701496004 360.5874213937173L271.3623701496004 360.5874213937173L321.07595335132226 360.5874213937173Q323.28544593806544 360.5874213937173 323.28544593806544 362.7969139804605L323.28544593806544 362.7969139804605L323.28544593806544 406.34233037752426Q323.28544593806544 413.1856199170206 323.5923199084465 419.47653630983103Q323.92988127586557 425.76745270264155 324.81981578997045 431.96630690433767L324.81981578997045 431.96630690433767Q325.03462756923716 433.07105319770926 324.48225442255136 433.7154885355094Q323.92988127586557 434.39061127034756 322.825134982494 434.39061127034756L322.825134982494 434.39061127034756L311.1332367109779 434.39061127034756Q310.243302196873 434.39061127034756 309.5681794620348 433.9609877118142Q308.9237441242347 433.5006767562427 308.6782449479299 432.6107422421378L308.6782449479299 432.6107422421378Q308.2486213893965 429.7568143175945 307.8189978308631 426.227763658213Q307.3586868752916 422.66802560179343 307.1438750960249 418.7093513838785L307.1438750960249 418.7093513838785L306.9290633167582 418.7093513838785Q302.7248899225385 424.8775181885366 296.43397352972806 428.989629391642Q290.14305713691755 433.07105319770926 282.287083495164 435.0657340051858Q274.43110985341036 437.02972741562417 265.3783277271709 437.02972741562417ZM358.8521391052233 434.39061127034756L344.03012633582097 434.39061127034756Q341.60582196981113 434.39061127034756 342.2809447046493 431.96630690433767L342.2809447046493 431.96630690433767L391.1045933922663 291.4487158668782Q391.77971612710445 289.6688468386684 393.7437095375428 289.6688468386684L393.7437095375428 289.6688468386684L413.41433103896486 289.6688468386684Q415.4090118464414 289.6688468386684 416.0841345812796 291.4487158668782L416.0841345812796 291.4487158668782L465.5522186066966 431.96630690433767Q466.2273413415348 434.39061127034756 463.80303697552495 434.39061127034756L463.80303697552495 434.39061127034756L448.1217770890559 434.39061127034756Q446.12709628157944 434.39061127034756 445.4519735467412 432.6107422421378L445.4519735467412 432.6107422421378L412.30958474559327 333.1835758386941Q410.1000921588501 326.5550980784645 407.8905995721069 319.92662031823494Q405.6811069853637 313.29814255800534 403.25680261935383 306.6696647977758L403.25680261935383 306.6696647977758L403.0419908400871 306.6696647977758Q400.83249825334394 313.0833307787386 398.62300566660076 319.61974634785395Q396.4135130798576 326.1254745199311 394.2040204931144 332.539140500894L394.2040204931144 332.539140500894L361.4912552504999 432.6107422421378Q360.84681991269974 434.39061127034756 358.8521391052233 434.39061127034756L358.8521391052233 434.39061127034756ZM438.17906044871154 400.5730997343615L368.5800439663009 400.5730997343615L373.21384091905406 384.24740451009234L433.29976431965366 384.24740451009234L438.17906044871154 400.5730997343615Z " fill="#66fcf1" transform="matrix(0.7219557419093249,0,0,0.7219557419093249,0,38.63057967667095)"/><path d="M602.5637646250165 404.38799471707875L591.5082759206837 404.38799471707875Q589.8074315046325 404.38799471707875 589.8074315046325 402.6871503010276L589.8074315046325 402.6871503010276L589.8074315046325 294.6835298817765Q589.8074315046325 292.9826854657253 591.5082759206837 292.9826854657253L591.5082759206837 292.9826854657253L619.9029285330939 292.9826854657253Q640.5020442386029 292.9826854657253 650.8724706086929 301.7467587762113Q661.2428969787828 310.51083208669735 661.2428969787828 327.6846361209921L661.2428969787828 327.6846361209921Q661.2428969787828 344.6930802815041 650.7779792522456 353.52802210932555Q640.3130615257083 362.3865867762589 619.9029285330939 362.3865867762589L619.9029285330939 362.3865867762589L604.2646090410676 362.3865867762589L604.2646090410676 402.6871503010276Q604.2646090410676 404.38799471707875 602.5637646250165 404.38799471707875L602.5637646250165 404.38799471707875ZM604.2646090410676 305.2193161256492L604.2646090410676 350.1263332772232L619.5722087855285 350.1263332772232Q633.8640264481809 350.1263332772232 640.3130615257083 344.7639487988396Q646.7857194423476 339.4251871595677 646.7857194423476 328.18071574234034L646.7857194423476 328.18071574234034Q646.7857194423476 316.10944495619924 640.0768331345901 310.6761919604801Q633.3443239877208 305.2193161256492 619.241489037963 305.2193161256492L619.241489037963 305.2193161256492L604.2646090410676 305.2193161256492ZM693.5589408837556 404.38799471707875L682.5034521794228 404.38799471707875Q680.8026077633716 404.38799471707875 680.8026077633716 402.6871503010276L680.8026077633716 402.6871503010276L680.8026077633716 341.6221111969672Q680.8026077633716 336.8739205354909 680.5427565331415 332.3619582651329Q680.2829053029116 327.8499959947749 679.6214658077805 323.26716520708135L679.6214658077805 323.26716520708135Q679.2671232211031 321.37733807813555 681.3223102238317 321.37733807813555L681.3223102238317 321.37733807813555L691.6927365939216 321.37733807813555Q693.3935810099729 321.37733807813555 693.5589408837556 322.91282262040403L693.5589408837556 322.91282262040403Q694.2440032179984 326.14915157872366 694.574722965564 330.30677126240437Q694.9290655522412 334.48801378519687 694.9290655522412 337.3700001568392L694.9290655522412 337.3700001568392L695.2597852998068 346.3939246975553L695.2597852998068 402.6871503010276Q695.2597852998068 404.38799471707875 693.5589408837556 404.38799471707875L693.5589408837556 404.38799471707875ZM693.3935810099729 351.49645794570887L693.3935810099729 351.49645794570887L693.0392384232955 337.535360030622Q696.6299099682925 332.2674669086856 701.3072321124333 328.18071574234034Q705.984554256574 324.117587415107 710.8272362744976 321.73168066481287Q715.6699182924211 319.3457739145189 719.7566694587664 319.3457739145189L719.7566694587664 319.3457739145189Q722.8040157041914 319.3457739145189 724.3395002464599 319.8654763749789L724.3395002464599 319.8654763749789Q725.7096249149456 320.19619612254445 725.8749847887283 321.56632079103014L725.8749847887283 321.56632079103014Q726.2057045362939 325.1333694969153 726.1348360189584 328.8657780765832Q726.0403446625111 332.6218094953629 725.5442650411628 336.02349832746535L725.5442650411628 336.02349832746535Q725.1899224544856 337.8897026172993 723.3237181646515 337.3700001568392L723.3237181646515 337.3700001568392Q721.9535934961659 337.03928040927366 720.4417317930092 336.8739205354909Q718.9062472507409 336.68493782259634 717.2054028346896 336.68493782259634L717.2054028346896 336.68493782259634Q712.9532917945616 336.68493782259634 708.7011807544336 338.57476495154214Q704.4490697143057 340.4409692413761 700.5276784217432 343.74816671703115Q696.6299099682925 347.07898703179814 693.3935810099729 351.49645794570887ZM774.1836907724047 406.4195588806955L774.1836907724047 406.4195588806955Q757.00988673811 406.4195588806955 748.0804535538413 398.1043195133341Q739.1510203695724 389.7654573068608 739.1510203695724 372.75701314634887L739.1510203695724 372.75701314634887L739.1510203695724 353.0319424879773Q739.1510203695724 336.02349832746535 747.9859621973939 327.6846361209921Q756.8209040252154 319.3457739145189 774.1836907724047 319.3457739145189L774.1836907724047 319.3457739145189Q791.3574948066995 319.3457739145189 800.2869279909683 327.6846361209921Q809.216361175237 336.02349832746535 809.216361175237 353.0319424879773L809.216361175237 353.0319424879773L809.216361175237 372.75701314634887Q809.216361175237 389.7654573068608 800.3814193474155 398.1043195133341Q791.5228546804823 406.4195588806955 774.1836907724047 406.4195588806955ZM774.1836907724047 393.6632257603115L774.1836907724047 393.6632257603115Q785.0738196029548 393.6632257603115 789.9165016208783 388.1354814081451Q794.7591836388019 382.6077370559787 794.7591836388019 371.3868884778632L794.7591836388019 371.3868884778632L794.7591836388019 354.3784443173512Q794.7591836388019 343.1575957392356 789.9165016208783 337.62985138706927Q785.0738196029548 332.1021070349029 774.1836907724047 332.1021070349029L774.1836907724047 332.1021070349029Q763.2935619418547 332.1021070349029 758.4508799239312 337.62985138706927Q753.6081979060076 343.1575957392356 753.6081979060076 354.3784443173512L753.6081979060076 354.3784443173512L753.6081979060076 371.3868884778632Q753.6081979060076 382.6077370559787 758.4508799239312 388.1354814081451Q763.2935619418547 393.6632257603115 774.1836907724047 393.6632257603115ZM826.9098676699919 436.70403862205154L826.9098676699919 436.70403862205154Q825.5397430015062 437.5544608300771 824.5239609196979 436.18433616159143L824.5239609196979 436.18433616159143L817.8859431292758 427.86909679423Q817.3898635079275 427.01867458620444 817.5552233817103 426.49897212574433Q817.7205832554931 425.9792696652843 818.4056455897359 425.483190043936L818.4056455897359 425.483190043936Q822.8231165036467 422.4122209593991 825.964954105519 417.90025868904104Q829.1067917073914 413.41191925779486 830.8076361234425 407.36447244516836Q832.5084805394937 401.3170256325419 832.5084805394937 393.49786588652876L832.5084805394937 393.49786588652876L832.5084805394937 323.07818249418676Q832.5084805394937 322.2277602861612 833.0281829999539 321.80254918214837Q833.5478854604139 321.37733807813555 834.209324955545 321.37733807813555L834.209324955545 321.37733807813555L845.2648136598777 321.37733807813555Q846.1152358679034 321.37733807813555 846.5404469719161 321.80254918214837Q846.9656580759289 322.2277602861612 846.9656580759289 323.07818249418676L846.9656580759289 323.07818249418676L846.9656580759289 394.34828809455433Q846.9656580759289 404.55335459086155 844.839602555865 412.5614970497693Q842.713547035801 420.5460166695651 838.2960761218902 426.49897212574433Q833.8786052079794 432.45192758192354 826.9098676699919 436.70403862205154ZM839.8315606641586 307.43986300216045L839.8315606641586 307.43986300216045Q834.8943872897878 307.43986300216045 832.6974632523883 304.79410502163637Q830.4769163758771 302.1719698802241 830.4769163758771 298.0852187138789L830.4769163758771 298.0852187138789L830.4769163758771 296.38437429782766Q830.4769163758771 292.29762313148245 832.6974632523883 289.67548799007017Q834.8943872897878 287.0297300095461 839.8315606641586 287.0297300095461L839.8315606641586 287.0297300095461Q844.7687340385295 287.0297300095461 846.9656580759289 289.67548799007017Q849.1862049524403 292.29762313148245 849.1862049524403 296.38437429782766L849.1862049524403 296.38437429782766L849.1862049524403 298.0852187138789Q849.1862049524403 302.1719698802241 846.9656580759289 304.79410502163637Q844.7687340385295 307.43986300216045 839.8315606641586 307.43986300216045ZM904.2982886003214 406.4195588806955L904.2982886003214 406.4195588806955Q887.9749067740523 406.4195588806955 879.2108334635662 398.76575900846507Q870.4467601530802 391.1119591362347 870.4467601530802 376.15870197845123L870.4467601530802 376.15870197845123L870.4467601530802 352.34688015373445Q870.4467601530802 336.1888582012481 879.116342107119 327.7555046383276Q887.7859240611577 319.3457739145189 904.2982886003214 319.3457739145189L904.2982886003214 319.3457739145189Q920.7870303003733 319.3457739145189 929.3857437370766 327.5901447645448Q937.960834334668 335.83451561457076 937.960834334668 351.49645794570887L937.960834334668 351.49645794570887L937.960834334668 364.7488706874411Q937.960834334668 366.44971510349234 936.2599899186168 366.44971510349234L936.2599899186168 366.44971510349234L884.9039376895154 366.44971510349234L884.9039376895154 371.90659093832323Q884.9039376895154 383.29279939022155 889.6757511901035 388.4898239948224Q894.4239418515798 393.6632257603115 905.1487108083471 393.6632257603115L905.1487108083471 393.6632257603115Q913.133230428143 393.6632257603115 917.4798328247183 391.04109061889926Q921.8028123821816 388.3953326383752 921.8028123821816 383.29279939022155L921.8028123821816 383.29279939022155Q921.8028123821816 381.4265951003876 923.6926395111274 381.4265951003876L923.6926395111274 381.4265951003876L934.7481282154603 381.4265951003876Q936.0946300448342 381.4265951003876 936.4489726315115 382.962079642656L936.4489726315115 382.962079642656Q937.1104121266425 393.8522084732061 928.4408301726037 400.13588367695075Q919.771248218565 406.4195588806955 904.2982886003214 406.4195588806955ZM884.9039376895154 353.1973023617601L884.9039376895154 354.04772456978566L923.5036567982328 354.04772456978566L923.5036567982328 353.0319424879773Q923.5036567982328 342.30717353121 918.7554661367566 337.20464028305645Q913.9836526361686 332.1021070349029 904.4636484741042 332.1021070349029L904.4636484741042 332.1021070349029Q894.5893017253625 332.1021070349029 889.746619707439 337.3700001568392Q884.9039376895154 342.63789327877555 884.9039376895154 353.1973023617601L884.9039376895154 353.1973023617601ZM993.4272605692265 406.4195588806955L993.4272605692265 406.4195588806955Q976.4188164087146 406.4195588806955 967.5602517417813 397.9153368004395Q958.7253099139597 389.4111147201835 958.7253099139597 373.4420754805917L958.7253099139597 373.4420754805917L958.7253099139597 352.34688015373445Q958.7253099139597 336.3542180750309 967.7256116155639 327.8499959947749Q976.74953615628 319.3457739145189 993.7579803167921 319.3457739145189L993.7579803167921 319.3457739145189Q1003.7976869393166 319.3457739145189 1010.9317843510868 322.4167429990557Q1018.0895046019689 325.4640892444808 1021.9872730554196 330.8264737228644Q1025.9086643479823 336.1888582012481 1025.9086643479823 343.4883154868011L1025.9086643479823 343.4883154868011Q1025.9086643479823 347.40970677936366 1024.2078199319308 347.40970677936366L1024.2078199319308 347.40970677936366L1012.9869713538153 347.40970677936366Q1011.4514868115469 347.40970677936366 1011.4514868115469 344.6930802815041L1011.4514868115469 344.6930802815041Q1011.4514868115469 338.74012482532487 1006.6796733109588 335.40930451055794Q1001.9314826494825 332.1021070349029 993.7579803167921 332.1021070349029L993.7579803167921 332.1021070349029Q983.387553946702 332.1021070349029 978.2850206985485 337.3700001568392Q973.1824874503949 342.63789327877555 973.1824874503949 353.69338198310834L973.1824874503949 353.69338198310834L973.1824874503949 372.071950812106Q973.1824874503949 382.962079642656 978.2850206985485 388.3244641210397Q983.387553946702 393.6632257603115 993.5926204430093 393.6632257603115L993.5926204430093 393.6632257603115Q1001.7424999365879 393.6632257603115 1006.5143134371762 390.09617705442633Q1011.2861269377642 386.5291283485412 1011.2861269377642 381.26123522660487L1011.2861269377642 381.26123522660487Q1011.2861269377642 378.5446087287453 1012.7979886409208 378.5446087287453L1012.7979886409208 378.5446087287453L1024.0424600581482 378.5446087287453Q1025.7433044741992 378.5446087287453 1025.7433044741992 380.0564704319019L1025.7433044741992 380.0564704319019Q1025.7433044741992 392.15136405715486 1017.404442267726 399.2854614689252Q1009.0655800612528 406.4195588806955 993.4272605692265 406.4195588806955ZM1077.9497789113263 406.4195588806955L1077.9497789113263 406.4195588806955Q1069.2801969572874 406.4195588806955 1064.0831723526867 403.4430811526059Q1058.9097705871977 400.4666034245163 1056.594732354239 394.51364796833707Q1054.3033169603923 388.5606925121579 1054.3033169603923 379.7257506843364L1054.3033169603923 379.7257506843364L1054.3033169603923 333.802951450954L1041.216264092443 333.802951450954Q1039.5154196763915 333.802951450954 1039.5154196763915 332.1021070349029L1039.5154196763915 332.1021070349029L1039.5154196763915 323.07818249418676Q1039.5154196763915 321.37733807813555 1041.216264092443 321.37733807813555L1041.216264092443 321.37733807813555L1054.6576595470697 321.37733807813555L1056.5238638369037 300.9672050855212Q1056.6892237106863 299.26636066947 1058.3900681267376 299.26636066947L1058.3900681267376 299.26636066947L1066.8942902069937 299.26636066947Q1068.595134623045 299.26636066947 1068.595134623045 300.9672050855212L1068.595134623045 300.9672050855212L1068.7604944968275 321.37733807813555L1094.1078008638128 321.37733807813555Q1095.8086452798639 321.37733807813555 1095.8086452798639 323.07818249418676L1095.8086452798639 323.07818249418676L1095.8086452798639 332.1021070349029Q1095.8086452798639 333.802951450954 1094.1078008638128 333.802951450954L1094.1078008638128 333.802951450954L1068.7604944968275 333.802951450954L1068.7604944968275 379.39503093677087Q1068.7604944968275 387.37955055656676 1071.5716123511343 390.61587951488644Q1074.3827302054412 393.8522084732061 1081.186107869646 393.8522084732061L1081.186107869646 393.8522084732061Q1084.5877967017484 393.8522084732061 1087.9894855338507 393.07265478251594Q1091.3911743659532 392.31672393093766 1093.9424409900298 391.1119591362347L1093.9424409900298 391.1119591362347Q1095.9740051536467 390.26153692820907 1095.9740051536467 392.31672393093766L1095.9740051536467 392.31672393093766L1095.9740051536467 401.67136821921923Q1095.9740051536467 403.01787004859307 1094.6275033242728 403.5375725090532L1094.6275033242728 403.5375725090532Q1091.5565342397358 404.7187144646443 1087.4697830733908 405.56913667266986Q1083.3830319070455 406.4195588806955 1077.9497789113263 406.4195588806955ZM1210.2849236157542 404.38799471707875L1145.8181956795916 404.38799471707875Q1144.1173512635405 404.38799471707875 1144.1173512635405 402.6871503010276L1144.1173512635405 402.6871503010276L1144.1173512635405 393.0017862651805Q1144.1173512635405 391.3009418491293 1145.8181956795916 391.3009418491293L1145.8181956795916 391.3009418491293L1172.346644002168 391.3009418491293L1172.346644002168 309.4714271657772L1146.8339777613999 317.4795696246849Q1145.1331333453486 317.9756492460332 1145.1331333453486 316.274804829982L1145.1331333453486 316.274804829982L1145.1331333453486 306.25872104656935Q1145.1331333453486 304.88859637808366 1146.1489154271571 304.5578766305182L1146.1489154271571 304.5578766305182L1181.7012882904496 292.6519657181598Q1182.2209907509096 292.4629830052652 1182.8115617287049 292.39211448792975Q1183.4021327065007 292.29762313148245 1184.0871950407436 292.29762313148245L1184.0871950407436 292.29762313148245L1185.102977122552 292.29762313148245Q1186.803821538603 292.29762313148245 1186.803821538603 293.99846754753366L1186.803821538603 293.99846754753366L1186.803821538603 391.3009418491293L1210.2849236157542 391.3009418491293Q1211.9857680318057 391.3009418491293 1211.9857680318057 393.0017862651805L1211.9857680318057 393.0017862651805L1211.9857680318057 402.6871503010276Q1211.9857680318057 404.38799471707875 1210.2849236157542 404.38799471707875L1210.2849236157542 404.38799471707875Z " fill="teal" transform="matrix(0.7219557419093249,0,0,0.7219557419093249,0,38.63057967667095)"/></g></svg>